<svg xmlns="http://www.w3.org/2000/svg" viewBox="4371 229.745 92.255 92.255">
  <path id="iconmonstr-smiley-13" d="M46.127,7.688a38.44,38.44,0,1,1-38.44,38.44A38.483,38.483,0,0,1,46.127,7.688Zm0-7.688A46.127,46.127,0,1,0,92.255,46.127,46.129,46.129,0,0,0,46.127,0ZM67.3,53.589a32.13,32.13,0,0,1-21.169,7.423,32.136,32.136,0,0,1-21.176-7.423l-1.891,1.9C27.4,62.1,35.364,69.191,46.131,69.191s18.728-7.1,23.06-13.708Zm1.891-15.141-2.9,1.945a7.668,7.668,0,0,0-6.712-3.644,7.927,7.927,0,0,0-6.708,3.644l-2.9-1.945c1.08-2.875,4.632-7.7,9.606-7.7S68.1,35.572,69.191,38.447Zm-26.908,0-2.9,1.945a7.668,7.668,0,0,0-6.712-3.644,7.927,7.927,0,0,0-6.708,3.644l-2.9-1.945c1.08-2.875,4.632-7.7,9.606-7.7S41.2,35.572,42.283,38.447Z" transform="translate(4371 229.745)"/>
</svg>
