<svg xmlns="http://www.w3.org/2000/svg" viewBox="3156 384 31.383 25.504">
  <defs>
    <style>
      .cls-1 {
        fill: #fff;
      }
    </style>
  </defs>
  <path id="iconmonstr-twitter-1" class="cls-1" d="M31.383,5.267a12.855,12.855,0,0,1-3.7,1.013,6.449,6.449,0,0,0,2.831-3.562,12.9,12.9,0,0,1-4.089,1.563,6.443,6.443,0,0,0-10.972,5.871A18.278,18.278,0,0,1,2.185,3.426a6.447,6.447,0,0,0,1.992,8.6,6.411,6.411,0,0,1-2.915-.806,6.443,6.443,0,0,0,5.164,6.394,6.454,6.454,0,0,1-2.908.11,6.443,6.443,0,0,0,6.015,4.471A12.946,12.946,0,0,1,0,24.86a18.227,18.227,0,0,0,9.87,2.892c11.954,0,18.708-10.1,18.3-19.152a13.109,13.109,0,0,0,3.213-3.333Z" transform="translate(3156 381.752)"/>
</svg>
