<svg xmlns="http://www.w3.org/2000/svg" viewBox="3927.891 233 89.364 89.364">
  <path id="iconmonstr-smiley-4" d="M44.682,7.447A37.235,37.235,0,1,1,7.447,44.682,37.277,37.277,0,0,1,44.682,7.447Zm0-7.447A44.682,44.682,0,1,0,89.364,44.682,44.684,44.684,0,0,0,44.682,0Zm0,52.129c-8.683,0-15.434,6.092-18.964,10.415l1.754,2.16a30.641,30.641,0,0,1,17.21-4.87A30.641,30.641,0,0,1,61.9,64.7l1.754-2.16c-3.53-4.323-10.281-10.415-18.964-10.415ZM31.65,29.788a5.585,5.585,0,1,0,5.585,5.585A5.585,5.585,0,0,0,31.65,29.788Zm26.065,0A5.585,5.585,0,1,0,63.3,35.373,5.585,5.585,0,0,0,57.714,29.788Z" transform="translate(3927.891 233)"/>
</svg>
