<svg aria-hidden="true" style="position: absolute; width: 0; height: 0; overflow: hidden;" version="1.1" xmlns="http://www.w3.org/2000/svg" xmlns:xlink="http://www.w3.org/1999/xlink">
<defs>
<symbol id="icon-iconmonstr-smiley-happy" viewBox="0 0 32 32">
<title>iconmonstr-smiley-happy</title>
<path d="M16 2.667c7.364 0 13.333 5.97 13.333 13.333s-5.97 13.333-13.333 13.333c-7.364 0-13.333-5.97-13.333-13.333v0c0.009-7.36 5.973-13.325 13.333-13.333h0.001zM16 0c-8.836 0-15.999 7.163-15.999 16s7.163 16 16 16 16-7.163 16-16v0c-0-8.836-7.164-16-16-16v0zM23.344 18.588c-1.917 1.603-4.408 2.577-7.127 2.577-0.076 0-0.151-0.001-0.227-0.002l0.011 0c-0.065 0.001-0.141 0.002-0.217 0.002-2.719 0-5.211-0.974-7.146-2.591l0.018 0.014-0.656 0.659c1.504 2.293 4.266 4.753 8.001 4.753s6.496-2.463 7.999-4.755zM24 13.336l-1.006 0.675c-0.476-0.764-1.312-1.265-2.265-1.265-0.022 0-0.045 0-0.067 0.001l0.003-0c-0.004-0-0.008-0-0.013-0-0.967 0-1.817 0.499-2.307 1.253l-0.006 0.011-1.006-0.675c0.375-0.997 1.607-2.671 3.332-2.671s2.956 1.673 3.335 2.671zM14.666 13.336l-1.006 0.675c-0.476-0.764-1.312-1.265-2.265-1.265-0.022 0-0.045 0-0.067 0.001l0.003-0c-0.004-0-0.008-0-0.013-0-0.967 0-1.817 0.499-2.307 1.253l-0.007 0.011-1.006-0.675c0.375-0.997 1.607-2.671 3.332-2.671s2.959 1.673 3.335 2.671z"></path>
</symbol>
<symbol id="icon-iconmonstr-smiley-sad" viewBox="0 0 32 32">
<title>iconmonstr-smiley-sad</title>
<path d="M16 2.667c7.364 0 13.333 5.97 13.333 13.333s-5.97 13.333-13.333 13.333c-7.364 0-13.333-5.97-13.333-13.333v0c0.009-7.36 5.973-13.325 13.333-13.333h0.001zM16 0c-8.837 0-16 7.163-16 16s7.163 16 16 16c8.837 0 16-7.163 16-16v0c-0-8.836-7.164-16-16-16h-0zM16 18.667c-3.109 0-5.527 2.181-6.791 3.729l0.628 0.773c1.678-1.095 3.732-1.746 5.939-1.746 0.079 0 0.157 0.001 0.236 0.002l-0.012-0c0.068-0.002 0.148-0.002 0.229-0.002 2.206 0 4.259 0.651 5.979 1.771l-0.042-0.026 0.628-0.773c-1.264-1.548-3.681-3.729-6.791-3.729zM11.333 10.667c-1.105 0-2 0.895-2 2s0.895 2 2 2c1.105 0 2-0.895 2-2v0c0-1.105-0.895-2-2-2v0zM20.667 10.667c-1.105 0-2 0.895-2 2s0.895 2 2 2c1.105 0 2-0.895 2-2v0c0-1.105-0.895-2-2-2-0 0-0 0-0 0h0z"></path>
</symbol>
<symbol id="icon-iconmonstr-facebook" viewBox="0 0 16 32">
<title>iconmonstr-facebook</title>
<path d="M4 10.667h-4v5.333h4v16h6.667v-16h4.857l0.476-5.333h-5.333v-2.223c0-1.274 0.256-1.777 1.487-1.777h3.846v-6.667h-5.077c-4.795 0-6.923 2.111-6.923 6.154z"></path>
</symbol>
<symbol id="icon-iconmonstr-google-plus" viewBox="0 0 31 32">
<title>iconmonstr-google-plus</title>
<path d="M16 13.714v5.486h9.074c-0.369 2.352-2.743 6.903-9.074 6.903-5.512-0.089-9.947-4.578-9.947-10.103s4.435-10.015 9.939-10.103l0.008-0c0.053-0.001 0.115-0.002 0.177-0.002 2.404 0 4.589 0.942 6.204 2.478l-0.004-0.004 4.343-4.185c-2.741-2.592-6.449-4.186-10.53-4.186-0.067 0-0.134 0-0.201 0.001l0.010-0c-8.837 0-16 7.163-16 16s7.163 16 16 16v0c9.231 0 15.362-6.491 15.362-15.631-0.005-0.94-0.097-1.856-0.268-2.744l0.015 0.093h-15.109z"></path>
</symbol>
<symbol id="icon-iconmonstr-twitter" viewBox="0 0 39 32">
<title>iconmonstr-twitter</title>
<path  d="M39.376 3.788c-1.352 0.616-2.92 1.063-4.565 1.263l-0.078 0.008c1.671-1.011 2.927-2.564 3.536-4.412l0.016-0.057c-1.477 0.892-3.196 1.572-5.027 1.943l-0.104 0.018c-1.478-1.571-3.571-2.55-5.893-2.55-4.465 0-8.084 3.619-8.084 8.084 0 0.65 0.077 1.282 0.222 1.887l-0.011-0.055c-6.728-0.348-12.647-3.545-16.615-8.398l-0.032-0.041c-0.689 1.165-1.095 2.567-1.095 4.065 0 2.792 1.415 5.254 3.566 6.707l0.029 0.018c-1.349-0.044-2.603-0.414-3.698-1.032l0.040 0.021c-0 0.030-0.001 0.064-0.001 0.099 0 3.897 2.757 7.15 6.427 7.914l0.052 0.009c-0.636 0.18-1.367 0.283-2.123 0.283-0.54 0-1.067-0.053-1.578-0.154l0.051 0.008c1.063 3.235 4.027 5.543 7.539 5.61l0.008 0c-2.732 2.157-6.224 3.46-10.022 3.46-0.684 0-1.357-0.042-2.019-0.124l0.079 0.008c3.494 2.275 7.77 3.629 12.361 3.629 0.008 0 0.016 0 0.024 0h-0.001c14.999 0 23.473-12.673 22.961-24.030 1.587-1.157 2.925-2.542 3.994-4.124l0.037-0.058z"></path>
</symbol>
</defs>
</svg>
